# xmcd
#
# Track frame offsets:
#	150
#	14085
#	32376
#	51543
#	72046
#	91430
#	103811
#	114655
#	124590
#	138201
#	155053
#	172492
#	193310
#	207879
#	222141
#	234848
#	254613
#	273428
#
# Disc length: 3847 seconds
#
# Revision: 0
# Processed by: cddbd v1.5.2PL0 Copyright (c) Steve Scherf et al.
# Submitted via: audiograbber 1.83.01
#
DISCID=130f0512
DTITLE=Various Artist - Rhythm Is Gonna Get You CD3
DYEAR=2014
DGENRE=Dance
TTITLE0=Elvis Presley - Bossa Nova Baby (Viva Mix)
TTITLE1=Barry Manilow - Copacabana (At The Copa) (1993 Remix)
TTITLE2=Gloria Estefan and Miami Sound Machine - Conga
TTITLE3=M People - La Vida Loca
TTITLE4=Bolivar - Merengue
TTITLE5=Quincy Jones and His Orchestra - Soul Bossa Nova
TTITLE6=Pérez Prado Y Su Orquesta - Guaglione
TTITLE7=The Champs - Tequila
TTITLE8=Tito Puente and His Orchestra - Ran Kan Kan
TTITLE9=Harry Belafonte - Jump In The Line
TTITLE10=Quantic and Nickodemus ft Tempo and The Candela Allstars - Mi Swing Es Tro
TTITLE10=pical
TTITLE11=Zeca Pagodinho - Deixa A Vida Me Levar
TTITLE12=Candeia and Yvone Lara - Sou Mais O Samba
TTITLE13=Vanessa Da Mata - Não Me Deixe Só
TTITLE14=Gal Costa - Brasil
TTITLE15=Los Ilegales - La Morena
TTITLE16=Jota Quest ft Nile Rodgers - Mandou Bem
TTITLE17=Psirico - Lepo Lepo
EXTD=
EXTT0=
EXTT1=
EXTT2=
EXTT3=
EXTT4=
EXTT5=
EXTT6=
EXTT7=
EXTT8=
EXTT9=
EXTT10=
EXTT11=
EXTT12=
EXTT13=
EXTT14=
EXTT15=
EXTT16=
EXTT17=
PLAYORDER=
